PathFileType	4	(X/Y/Z)	..\data\2014025\dynamic\2014025_C5_02.trc
DataRate	CameraRate	NumFrames	NumMarkers	Units	OrigDataRate	OrigDataStartFrame	OrigNumFrames
100.000000	100.000000	4	52	mm	100.000000	0	125
Frame#	Time	L_IAS			L_IPS			R_IPS			R_IAS			L_FTC			L_FLE			L_FME			L_FAX			L_TTC			L_FAL			L_TAM			L_FCC			L_FM1			L_FM2			L_FM5			R_FTC			R_FLE			R_FME			R_FAX			R_TTC			R_FAL			R_TAM			R_FCC			R_FM1			R_FM2			R_FM5			CV7			TV10			SXS			SJN			L_SIA			L_SRS			L_SAA			L_SAE			L_HLE			L_HME			L_UOA			L_RSP			L_UHE			L_HM2			L_HM5			R_SIA			R_SRS			R_SAA			R_SAE			R_HLE			R_HME			R_UOA			R_RSP			R_UHE			R_HM2			R_HM5			
		X1	Y1	Z1	X2	Y2	Z2	X3	Y3	Z3	X4	Y4	Z4	X5	Y5	Z5	X6	Y6	Z6	X7	Y7	Z7	X8	Y8	Z8	X9	Y9	Z9	X10	Y10	Z10	X11	Y11	Z11	X12	Y12	Z12	X13	Y13	Z13	X14	Y14	Z14	X15	Y15	Z15	X16	Y16	Z16	X17	Y17	Z17	X18	Y18	Z18	X19	Y19	Z19	X20	Y20	Z20	X21	Y21	Z21	X22	Y22	Z22	X23	Y23	Z23	X24	Y24	Z24	X25	Y25	Z25	X26	Y26	Z26	X27	Y27	Z27	X28	Y28	Z28	X29	Y29	Z29	X30	Y30	Z30	X31	Y31	Z31	X32	Y32	Z32	X33	Y33	Z33	X34	Y34	Z34	X35	Y35	Z35	X36	Y36	Z36	X37	Y37	Z37	X38	Y38	Z38	X39	Y39	Z39	X40	Y40	Z40	X41	Y41	Z41	X42	Y42	Z42	X43	Y43	Z43	X44	Y44	Z44	X45	Y45	Z45	X46	Y46	Z46	X47	Y47	Z47	X48	Y48	Z48	X49	Y49	Z49	X50	Y50	Z50	X51	Y51	Z51	X52	Y52	Z52	

1	0	-263.9860229492188	862.6274414062502	-397.5957336425782	-496.7557373046876	933.4627075195315	-333.2109680175782	-496.8537597656251	950.999938964844	-220.8901672363282	-285.9814453125001	870.681091308594	-128.733642578125	-354.9213256835938	806.0667724609377	-480.9041442871095	-171.3871154785157	477.0228881835939	-425.597381591797	-174.3306274414063	452.8993225097657	-265.7283325195313	-176.7829132080078	419.9957885742189	-431.0157470703126	-105.0773162841797	411.9439086914064	-378.1253051757813	-64.4169158935547	82.56246185302736	-401.2841186523439	-46.68854141235352	100.9945449829102	-315.2967224121094	-92.65856933593751	40.22778701782227	-344.3977661132813	91.37901306152345	74.68840789794923	-301.0264282226563	84.09387207031251	75.21196746826173	-359.7568969726563	57.27002716064455	35.11106872558594	-396.2616577148439	-394.6622314453126	806.6167602539065	-52.62615966796876	-517.7896118164064	461.842254638672	-153.3270416259766	-487.3624877929689	462.2237854003907	-316.1626892089844	-574.4959106445314	405.2976684570314	-166.3268585205078	-491.7611083984376	367.7887878417969	-217.7021942138672	-687.7648315429689	97.42780303955081	-248.5252532958985	-646.0352783203126	100.7216110229492	-330.6607971191407	-728.1405639648439	60.51219940185548	-319.2801513671876	-545.7083129882814	6.27664375305176	-292.5376892089844	-553.3037109375001	33.27169799804688	-238.6553955078126	-611.6163940429689	16.92831611633301	-202.041000366211	-399.8739013671876	1385.540771484375	-289.4782714843751	-477.8453979492189	1165.387573242188	-260.0813903808594	-223.5163879394532	1161.054077148438	-303.1670837402344	-286.0683288574219	1305.938354492188	-299.2003784179688	-494.8484802246095	1198.7900390625	-353.6539611816407	-452.6413574218751	1329.730834960938	-360.5867004394532	-422.2879943847657	1335.800537109375	-441.4796142578126	-379.4362792968751	1340.050659179688	-472.4131164550782	-502.0254516601564	1054.176025390625	-535.7340087890626	-503.3726501464845	1037.53662109375	-445.0570678710939	-520.4869995117189	1043.181884765625	-488.8287963867189	-501.5333251953126	805.1195068359377	-543.1960449218751	-572.7492675781251	834.534606933594	-568.4841918945314	-531.6715698242189	725.1392822265626	-570.0924072265626	-603.7840576171876	787.1016845703127	-588.6998901367189	-463.6150512695314	1208.240356445313	-152.5428161621094	-428.3783264160157	1338.200439453125	-187.2774658203125	-370.5728759765626	1350.613403320313	-130.5392456054688	-318.0697326660157	1354.265380859375	-123.5605392456055	-274.0410766601563	1056.751953125	3.508444547653199	-296.7537841796876	1017.533325195313	-72.52666473388673	-281.6315002441407	1011.724548339844	-22.21821403503418	-57.76097488403322	918.3975219726565	-26.2336711883545	-88.70499420166017	898.2575683593752	29.59509849548341	-1.961556553840638	864.500671386719	-5.882514953613282	-83.01529693603517	844.5275878906252	45.34675979614259	
2	0.01	-241.794906616211	860.2054443359377	-397.6893005371095	-475.4077758789064	930.2363281250002	-337.3280639648438	-476.6564025878907	948.4268798828127	-226.014877319336	-267.8992614746094	868.0823364257815	-127.0748825073242	-331.1644592285157	803.8225097656252	-482.614227294922	-151.5057525634766	473.4201965332032	-426.0466308593751	-154.4396209716797	449.4797973632814	-265.0707702636719	-156.300765991211	416.999481201172	-430.8988647460939	-83.44836425781251	410.7694396972657	-378.3377380371094	-34.49957656860352	82.43567657470705	-400.282684326172	-16.43184089660645	101.6365585327149	-314.5839538574219	-62.27352905273439	41.01564025878907	-343.4036254882813	121.2043228149414	74.60190582275392	-298.4133605957032	114.6226196289063	74.4536590576172	-357.3755493164063	88.08492279052736	34.48949050903321	-394.0120849609376	-378.0735168457032	805.0805664062502	-54.35575485229494	-502.9196166992189	461.3507080078126	-153.3326416015625	-470.8783569335939	459.8069763183595	-315.5141906738282	-561.2828979492189	406.1596984863282	-166.3788757324219	-479.1126098632814	365.6336364746094	-217.0890808105469	-684.7584228515626	102.0458068847657	-247.4887390136719	-643.0151977539064	104.082275390625	-329.4758911132813	-726.1163940429689	67.47032165527345	-318.3694152832032	-546.8359375000001	5.409283638000489	-293.1487731933594	-553.8923950195314	32.83998107910157	-239.3717803955079	-612.0953369140626	16.86946296691895	-202.3179779052735	-381.2189331054688	1382.52587890625	-290.2934875488282	-458.450653076172	1162.028198242188	-261.1695556640626	-203.8602142333985	1157.973754882813	-302.8127136230469	-266.4408874511719	1303.03564453125	-299.7513427734376	-475.1659545898439	1195.202514648438	-354.6750488281251	-433.4432678222657	1326.44921875	-361.4828491210938	-402.727996826172	1332.742919921875	-442.2160644531251	-359.8871154785157	1337.052734375	-473.095428466797	-486.2405700683595	1053.2666015625	-536.4111938476564	-486.7767028808595	1036.090454101563	-445.7619934082032	-504.2491455078126	1042.293701171875	-489.3724060058595	-489.9975585937501	804.3208007812502	-544.9956054687501	-560.6882934570314	835.218444824219	-569.8596191406251	-521.9752197265626	725.0185546875001	-571.9597167968751	-592.9574584960939	788.4929809570315	-589.7710571289064	-444.564910888672	1205.071166992188	-153.4820251464844	-410.0044250488282	1335.511840820313	-187.8829193115235	-352.2857055664063	1348.111938476563	-131.1797332763672	-299.7438659667969	1351.919799804688	-124.3386993408203	-251.3290100097657	1055.467529296875	2.498666524887085	-274.5784301757813	1015.691650390625	-73.0437469482422	-258.1703491210938	1009.881652832031	-23.12912178039551	-32.16133880615235	922.339538574219	-31.06993484497071	-61.4900360107422	901.312438964844	25.33999061584473	25.30466079711915	869.9074707031252	-11.78764533996582	-54.14647674560548	847.7925415039065	40.85290908813477	
3	0.02	-219.5338439941407	858.2484130859377	-397.7022094726564	-453.7758178710939	927.3946533203127	-341.1946105957032	-456.0767517089845	946.0046997070315	-230.8486938476563	-249.2276916503907	865.8955688476565	-125.7231369018555	-307.2330017089844	802.1054687500002	-484.2515563964845	-131.1674346923828	470.2325744628907	-426.3345031738282	-134.0769653320313	446.864715576172	-264.4815063476563	-135.5681457519532	414.3245544433595	-430.6696166992189	-62.12117004394533	409.2844848632814	-378.1109619140626	-9.425528526306154	81.91921997070314	-398.8894348144532	8.76926898956299	101.4202499389649	-313.4581298828126	-37.22760391235352	41.2365951538086	-342.3887939453126	145.872314453125	72.63439941406251	-295.7233886718751	140.1277770996094	72.43779754638673	-354.9380187988282	113.5055847167969	33.30411911010743	-392.0734863281251	-360.9365234375001	803.882019042969	-56.15613174438478	-486.3374328613282	460.4262084960939	-152.7383575439453	-452.8477172851564	456.8475646972657	-314.2780151367188	-546.3323974609376	406.7667541503907	-165.7184600830078	-464.9660644531251	363.0561523437501	-215.7719116210938	-680.7609863281251	107.4047393798828	-245.7751922607422	-639.1738891601564	108.0151748657227	-327.5531005859376	-723.0162353515626	75.70925903320314	-316.7838745117188	-548.5205078125001	4.814464569091798	-293.7529907226563	-554.7200317382814	32.41483306884766	-240.0063171386719	-612.6085205078126	17.2031536102295	-202.3925323486329	-362.3928527832032	1379.735107421875	-291.4000244140626	-438.8373413085939	1158.890380859375	-262.5834045410157	-183.9142608642578	1155.330932617188	-302.4817810058594	-246.6640319824219	1300.372680664063	-300.3522949218751	-455.1638488769532	1191.877075195313	-356.2220153808594	-413.9313354492189	1323.416259765625	-362.7915649414063	-382.6797485351563	1329.889404296875	-443.3345336914064	-339.7803039550782	1334.26611328125	-474.0648498535157	-469.3517456054689	1052.353393554688	-537.4685668945314	-469.3265075683595	1034.710205078125	-446.8057556152345	-487.0560913085939	1041.3857421875	-490.3543701171876	-476.9144897460939	803.522888183594	-546.9101562500001	-547.0158691406251	835.7683715820315	-571.6066894531251	-510.6079101562501	724.8141479492189	-573.8206787109376	-580.4301757812501	789.6779785156252	-591.1767578125001	-425.5108337402345	1202.00537109375	-154.8495483398438	-391.6161499023439	1332.938110351563	-188.9095153808594	-334.1668395996094	1345.78759765625	-132.1240386962891	-281.6470947265626	1349.827758789063	-125.2749557495117	-229.2000427246094	1054.384521484375	1.31898832321167	-253.0805053710938	1014.161071777344	-73.77516174316408	-235.4427185058594	1008.275634765625	-24.22876358032227	-7.85225296020508	925.5238037109377	-35.53722000122071	-35.81137847900391	903.8100585937502	21.36943054199219	51.06128692626955	874.4825439453127	-17.11783409118653	-27.02833366394044	850.554382324219	36.71061325073243	
4	0.03	-197.2596893310547	856.7817382812502	-397.6458435058595	-431.9644165039064	924.9688110351565	-344.6908264160157	-435.2071838378907	943.6925048828127	-235.1834259033204	-229.9069824218751	864.1064453125002	-124.8302764892578	-283.2260742187501	800.9936523437502	-485.8152465820314	-110.3531875610352	467.6237792968751	-426.4289855957032	-113.2746353149414	445.1618652343751	-264.0181274414063	-114.5626831054688	412.078582763672	-430.3303833007814	-41.10734176635743	407.5674438476564	-377.4320373535157	10.92739486694336	80.92394256591798	-397.1080627441407	28.96187973022462	100.2604751586914	-311.8956909179688	-17.37147521972657	40.6960678100586	-341.3612060546876	165.5163879394532	68.92330932617189	-292.9243469238282	160.7514038085938	69.30384826660158	-352.4179382324219	133.7110443115235	31.62584495544434	-390.4420471191407	-343.0947265625001	802.9314575195315	-57.96475219726564	-467.9118652343751	458.9918823242189	-151.54296875	-433.1206665039064	453.3049926757814	-312.4588012695313	-529.4888916015626	407.0692138671876	-164.340087890625	-449.1661376953126	360.0463256835938	-213.7200469970704	-675.4848022460939	113.5859680175782	-243.4886932373047	-634.1757812500001	112.5504531860352	-324.9626770019532	-718.4516601562501	85.29224395751955	-314.6383972167969	-550.5973510742189	4.625676631927491	-294.2904968261719	-555.6486206054689	32.09322357177735	-240.4980773925782	-613.0303955078126	18.14960098266602	-202.2767181396485	-343.3720092773438	1377.249267578125	-292.7797546386719	-419.0226135253907	1156.064697265625	-264.3011474609376	-163.7004547119141	1153.1953125	-302.2020568847657	-226.7570037841797	1298.020141601563	-300.9983215332032	-434.8504333496095	1188.888427734375	-358.2558288574219	-394.107635498047	1320.70458984375	-364.4899597167969	-362.1769409179688	1327.302856445313	-444.8217773437501	-319.1450500488282	1331.7490234375	-475.3113708496095	-451.3294372558595	1051.4326171875	-538.9078979492189	-451.0223083496095	1033.407836914063	-448.1927490234376	-468.8922119140626	1040.466064453125	-491.7696228027345	-462.1754760742189	802.7037353515627	-548.9491577148439	-531.6630859375001	836.1273193359377	-573.7199096679689	-497.4409179687501	724.4747314453126	-575.6889648437501	-566.1057128906251	790.5860595703127	-592.9313964843751	-406.446990966797	1199.128295898438	-156.6158752441407	-373.1674499511719	1330.540283203125	-190.3358154296875	-316.1695556640626	1343.681396484375	-133.340560913086	-263.7281799316407	1348.024658203125	-126.3379287719727	-207.7198944091797	1053.458129882813	-0.0166709553450346	-232.2502593994141	1012.900390625	-74.73341369628908	-213.5216522216797	1006.88427734375	-25.50363159179688	15.14403724670411	927.8223266601565	-39.52756881713868	-11.72784328460694	905.6087646484377	17.77481842041016	75.2599563598633	878.0354003906252	-21.74520111083985	-1.772220134735108	852.643493652344	33.00119018554688	
